<svg width="40" height="40" viewBox="0 0 40 40" fill="none" xmlns="http://www.w3.org/2000/svg">
<path d="M29 19.5C29.0034 20.8199 28.6951 22.1219 28.1 23.3C27.3944 24.7118 26.3098 25.8992 24.9674 26.7293C23.6251 27.5594 22.0782 27.9994 20.5 28C19.1801 28.0035 17.8781 27.6951 16.7 27.1L11 29L12.9 23.3C12.3049 22.1219 11.9966 20.8199 12 19.5C12.0006 17.9218 12.4406 16.3749 13.2707 15.0326C14.1008 13.6903 15.2883 12.6056 16.7 11.9C17.8781 11.305 19.1801 10.9966 20.5 11H21C23.0843 11.115 25.053 11.9948 26.5291 13.4709C28.0052 14.947 28.885 16.9157 29 19V19.5Z" stroke="#A9A9A9" stroke-width="1.5" stroke-linecap="round" stroke-linejoin="round"/>
<path fill-rule="evenodd" clip-rule="evenodd" d="M20.4016 22.9172C21.7233 22.9918 23.0401 22.574 23.8967 21.5777C24.1667 21.2636 24.6403 21.2278 24.9544 21.4979C25.2685 21.7679 25.3042 22.2414 25.0341 22.5555C23.8007 23.9902 21.9811 24.5087 20.3171 24.4148C18.6711 24.3219 17.0171 23.62 16.1047 22.4002C15.8566 22.0686 15.9243 21.5986 16.256 21.3504C16.5876 21.1023 17.0577 21.17 17.3058 21.5017C17.8806 22.2702 19.0617 22.8416 20.4016 22.9172Z" fill="#A9A9A9"/>
</svg>
