<svg width="40" height="40" viewBox="0 0 40 40" fill="none" xmlns="http://www.w3.org/2000/svg">
<path fill-rule="evenodd" clip-rule="evenodd" d="M11.7506 19.4078C11.7506 15.1578 15.2726 11.7125 19.6172 11.7125C23.9618 11.7125 27.4838 15.1578 27.4838 19.4078C27.4838 23.6578 23.9618 27.1031 19.6172 27.1031C15.2726 27.1031 11.7506 23.6578 11.7506 19.4078ZM19.6172 10C14.3058 10 10 14.212 10 19.4078C10 24.6035 14.3058 28.8155 19.6172 28.8155C21.842 28.8155 23.8904 28.0766 25.5197 26.8358L28.5066 29.75C28.8488 30.0839 29.403 30.0832 29.7444 29.7484C30.0858 29.4136 30.0851 28.8715 29.7428 28.5375L26.7988 25.6651C28.3138 24.0025 29.2345 21.8103 29.2345 19.4078C29.2345 14.212 24.9287 10 19.6172 10Z" fill="#A9A9A9"/>
</svg>
