<svg width="10" height="10" viewBox="0 0 10 10" fill="none" xmlns="http://www.w3.org/2000/svg">
<path fill-rule="evenodd" clip-rule="evenodd" d="M-1.33485e-08 4.88608C-2.07207e-08 4.54877 0.273445 4.27533 0.610757 4.27533L9.16136 4.27533C9.49867 4.27533 9.77211 4.54877 9.77211 4.88608C9.77211 5.2234 9.49867 5.49684 9.16136 5.49684L0.610757 5.49684C0.273445 5.49684 -5.97634e-09 5.2234 -1.33485e-08 4.88608Z" fill="white"/>
<path fill-rule="evenodd" clip-rule="evenodd" d="M4.88566 9.77211C4.54835 9.77211 4.2749 9.49866 4.2749 9.16135L4.2749 0.610754C4.2749 0.273442 4.54835 -2.867e-06 4.88566 -2.87437e-06C5.22297 -2.88174e-06 5.49642 0.273442 5.49642 0.610754L5.49642 9.16135C5.49642 9.49866 5.22297 9.77211 4.88566 9.77211Z" fill="white"/>
</svg>
