<svg width="14" height="19" viewBox="0 0 14 19" fill="none" xmlns="http://www.w3.org/2000/svg">
<path d="M13 18L12.4697 18.5303C12.6842 18.7448 13.0068 18.809 13.287 18.6929C13.5673 18.5768 13.75 18.3033 13.75 18H13ZM1 18H0.25C0.25 18.3033 0.432732 18.5768 0.712987 18.6929C0.993243 18.809 1.31583 18.7448 1.53033 18.5303L1 18ZM7 12L7.53033 11.4697C7.23744 11.1768 6.76256 11.1768 6.46967 11.4697L7 12ZM3 1.75H11V0.25H3V1.75ZM12.25 3V18H13.75V3H12.25ZM1.75 18V3H0.25V18H1.75ZM13.5303 17.4697L7.53033 11.4697L6.46967 12.5303L12.4697 18.5303L13.5303 17.4697ZM6.46967 11.4697L0.46967 17.4697L1.53033 18.5303L7.53033 12.5303L6.46967 11.4697ZM11 1.75C11.6904 1.75 12.25 2.30964 12.25 3H13.75C13.75 1.48122 12.5188 0.25 11 0.25V1.75ZM3 0.25C1.48122 0.25 0.25 1.48122 0.25 3H1.75C1.75 2.30964 2.30964 1.75 3 1.75V0.25Z" fill="#A9A9A9"/>
</svg>
