<svg width="14" height="14" viewBox="0 0 14 14" fill="none" xmlns="http://www.w3.org/2000/svg">
<path fill-rule="evenodd" clip-rule="evenodd" d="M1.22543 6.58544C1.22543 3.61045 3.69083 1.19874 6.73206 1.19874C9.77329 1.19874 12.2387 3.61045 12.2387 6.58544C12.2387 9.56044 9.77329 11.9721 6.73206 11.9721C3.69083 11.9721 1.22543 9.56044 1.22543 6.58544ZM6.73206 0C3.01405 0 0 2.9484 0 6.58544C0 10.2225 3.01405 13.1709 6.73206 13.1709C8.28941 13.1709 9.72325 12.6536 10.8638 11.7851L12.9546 13.825C13.1942 14.0588 13.5821 14.0583 13.8211 13.8239C14.0601 13.5895 14.0596 13.21 13.82 12.9763L11.7592 10.9656C12.8197 9.80172 13.4641 8.2672 13.4641 6.58544C13.4641 2.9484 10.4501 0 6.73206 0Z" fill="#9BA0AF"/>
</svg>
