<svg width="40" height="40" viewBox="0 0 40 40" fill="none" xmlns="http://www.w3.org/2000/svg">
<path d="M17.4282 28L20.4282 25L23.4282 28" stroke="#A9A9A9" stroke-width="1.5" stroke-linecap="round" stroke-linejoin="round"/>
<path d="M23.4282 12L20.4282 15L17.4282 12" stroke="#A9A9A9" stroke-width="1.5" stroke-linecap="round" stroke-linejoin="round"/>
<path d="M20.4282 11V15V20V25V29" stroke="#A9A9A9" stroke-width="1.5" stroke-linecap="round" stroke-linejoin="round"/>
<path d="M25.8564 26.598L24.7583 22.4999L28.8564 21.4019" stroke="#A9A9A9" stroke-width="1.5" stroke-linecap="round" stroke-linejoin="round"/>
<path d="M15 13.4019L16.0981 17.4999L12 18.598" stroke="#A9A9A9" stroke-width="1.5" stroke-linecap="round" stroke-linejoin="round"/>
<path d="M12.6338 15.5L16.0979 17.5L20.428 20L24.7581 22.5L28.2222 24.5" stroke="#A9A9A9" stroke-width="1.5" stroke-linecap="round" stroke-linejoin="round"/>
<path d="M28.8564 18.598L24.7583 17.4999L25.8564 13.4019" stroke="#A9A9A9" stroke-width="1.5" stroke-linecap="round" stroke-linejoin="round"/>
<path d="M12 21.4019L16.0981 22.4999L15 26.598" stroke="#A9A9A9" stroke-width="1.5" stroke-linecap="round" stroke-linejoin="round"/>
<path d="M12.6338 24.5L16.0979 22.5L20.428 20L24.7581 17.5L28.2222 15.5" stroke="#A9A9A9" stroke-width="1.5" stroke-linecap="round" stroke-linejoin="round"/>
</svg>
