<svg width="26" height="34" viewBox="0 0 26 34" fill="none" xmlns="http://www.w3.org/2000/svg">
<path d="M23.8182 32L22.9476 32.897C23.3079 33.2467 23.8426 33.3469 24.3051 33.1512C24.7677 32.9556 25.0682 32.5022 25.0682 32H23.8182ZM2 32H0.75C0.75 32.5022 1.05053 32.9556 1.51304 33.1512C1.97555 33.3469 2.51024 33.2467 2.87059 32.897L2 32ZM12.9091 21.4118L13.7797 20.5148C13.2947 20.0441 12.5235 20.0441 12.0385 20.5148L12.9091 21.4118ZM5.63636 3.25H20.1818V0.75H5.63636V3.25ZM22.5682 5.52941V32H25.0682V5.52941H22.5682ZM3.25 32V5.52941H0.75V32H3.25ZM24.6888 31.103L13.7797 20.5148L12.0385 22.3087L22.9476 32.897L24.6888 31.103ZM12.0385 20.5148L1.12941 31.103L2.87059 32.897L13.7797 22.3087L12.0385 20.5148ZM20.1818 3.25C21.5352 3.25 22.5682 4.30544 22.5682 5.52941H25.0682C25.0682 2.8549 22.845 0.75 20.1818 0.75V3.25ZM5.63636 0.75C2.97314 0.75 0.75 2.8549 0.75 5.52941H3.25C3.25 4.30544 4.28297 3.25 5.63636 3.25V0.75Z" fill="#2E8CFE"/>
</svg>
