<svg width="30" height="34" viewBox="0 0 30 34" fill="none" xmlns="http://www.w3.org/2000/svg">
<path d="M21.2812 24.5203H20.0312C20.0312 24.8244 20.1421 25.1182 20.3431 25.3464L21.2812 24.5203ZM22.5312 21.7838C22.5312 21.0934 21.9715 20.5338 21.2812 20.5338C20.5908 20.5338 20.0312 21.0934 20.0312 21.7838H22.5312ZM21.7892 26.9883C22.2455 27.5064 23.0354 27.5565 23.5534 27.1002C24.0715 26.6439 24.1216 25.854 23.6653 25.336L21.7892 26.9883ZM10.0338 16.223C10.7242 16.223 11.2838 15.6633 11.2838 14.973C11.2838 14.2826 10.7242 13.723 10.0338 13.723V16.223ZM2 13.723C1.30964 13.723 0.75 14.2826 0.75 14.973C0.75 15.6633 1.30964 16.223 2 16.223V13.723ZM26.4582 11.7297C26.4582 12.4201 27.0179 12.9797 27.7082 12.9797C28.3986 12.9797 28.9582 12.4201 28.9582 11.7297H26.4582ZM10.0338 32.4392C10.7242 32.4392 11.2838 31.8795 11.2838 31.1892C11.2838 30.4988 10.7242 29.9392 10.0338 29.9392V32.4392ZM20.9244 2C20.9244 1.30964 20.3648 0.75 19.6744 0.75C18.9841 0.75 18.4244 1.30964 18.4244 2H20.9244ZM18.4244 8.48649C18.4244 9.17684 18.9841 9.73649 19.6744 9.73649C20.3648 9.73649 20.9244 9.17684 20.9244 8.48649H18.4244ZM11.2838 2C11.2838 1.30964 10.7242 0.75 10.0338 0.75C9.34347 0.75 8.78383 1.30964 8.78383 2H11.2838ZM8.78383 8.48649C8.78383 9.17684 9.34347 9.73649 10.0338 9.73649C10.7242 9.73649 11.2838 9.17684 11.2838 8.48649H8.78383ZM27.2616 24.7027C27.2616 28.0534 24.5733 30.75 21.2812 30.75V33.25C25.9756 33.25 29.7616 29.4124 29.7616 24.7027H27.2616ZM21.2812 30.75C17.9891 30.75 15.3007 28.0534 15.3007 24.7027H12.8007C12.8007 29.4124 16.5867 33.25 21.2812 33.25V30.75ZM15.3007 24.7027C15.3007 21.352 17.9891 18.6554 21.2812 18.6554V16.1554C16.5867 16.1554 12.8007 19.993 12.8007 24.7027H15.3007ZM21.2812 18.6554C24.5733 18.6554 27.2616 21.352 27.2616 24.7027H29.7616C29.7616 19.993 25.9756 16.1554 21.2812 16.1554V18.6554ZM22.5312 24.5203V21.7838H20.0312V24.5203H22.5312ZM20.3431 25.3464L21.7892 26.9883L23.6653 25.336L22.2192 23.6941L20.3431 25.3464ZM10.0338 13.723H2V16.223H10.0338V13.723ZM3.25 27.9459V8.48649H0.75V27.9459H3.25ZM5.21353 29.9392C4.13992 29.9392 3.25 29.0577 3.25 27.9459H0.75C0.75 30.4166 2.73757 32.4392 5.21353 32.4392V29.9392ZM5.21353 3.99324C2.73757 3.99324 0.75 6.01581 0.75 8.48649H3.25C3.25 7.37478 4.13992 6.49324 5.21353 6.49324V3.99324ZM28.9582 11.7297V8.48649H26.4582V11.7297H28.9582ZM24.4947 6.49324C25.5683 6.49324 26.4582 7.37478 26.4582 8.48649H28.9582C28.9582 6.01581 26.9707 3.99324 24.4947 3.99324V6.49324ZM24.4947 3.99324H5.21353V6.49324H24.4947V3.99324ZM5.21353 32.4392H10.0338V29.9392H5.21353V32.4392ZM18.4244 2V8.48649H20.9244V2H18.4244ZM8.78383 2V8.48649H11.2838V2H8.78383Z" fill="#2E8CFE"/>
</svg>
