<svg width="34" height="34" viewBox="0 0 34 34" fill="none" xmlns="http://www.w3.org/2000/svg">
<path d="M16.1176 30.75C15.4273 30.75 14.8676 31.3096 14.8676 32C14.8676 32.6904 15.4273 33.25 16.1176 33.25V30.75ZM31.1176 33.25C31.808 33.25 32.3676 32.6904 32.3676 32C32.3676 31.3096 31.808 30.75 31.1176 30.75V33.25ZM2 32H0.75C0.75 32.6904 1.30964 33.25 2 33.25L2 32ZM2 24.9412L1.11612 24.0573C0.881696 24.2917 0.75 24.6097 0.75 24.9412H2ZM24.9412 2L25.8251 1.11612C25.5906 0.881696 25.2727 0.75 24.9412 0.75C24.6097 0.75 24.2917 0.881696 24.0573 1.11612L24.9412 2ZM32 9.05882L32.8839 9.94271C33.372 9.45455 33.372 8.6631 32.8839 8.17494L32 9.05882ZM9.05882 32V33.25C9.39034 33.25 9.70829 33.1183 9.94271 32.8839L9.05882 32ZM26.7059 14.3529L27.5898 15.2368H27.5898L26.7059 14.3529ZM16.1176 33.25H31.1176V30.75H16.1176V33.25ZM3.25 32V24.9412H0.75V32H3.25ZM24.0573 2.88388L31.1161 9.94271L32.8839 8.17494L25.8251 1.11612L24.0573 2.88388ZM9.05882 30.75H2V33.25H9.05882V30.75ZM31.1161 8.17494L25.822 13.4691L27.5898 15.2368L32.8839 9.94271L31.1161 8.17494ZM25.822 13.4691L8.17494 31.1161L9.94271 32.8839L27.5898 15.2368L25.822 13.4691ZM2.88388 25.8251L20.5309 8.178L18.7632 6.41023L1.11612 24.0573L2.88388 25.8251ZM20.5309 8.178L25.8251 2.88388L24.0573 1.11612L18.7632 6.41023L20.5309 8.178ZM27.5898 13.4691L20.5309 6.41023L18.7632 8.178L25.822 15.2368L27.5898 13.4691Z" fill="#2E8CFE"/>
</svg>
