<svg width="19" height="19" viewBox="0 0 19 19" fill="none" xmlns="http://www.w3.org/2000/svg">
<path d="M1 8L0.714438 7.30649C0.435214 7.42146 0.252176 7.69268 0.250019 7.99464C0.247862 8.2966 0.427008 8.57041 0.70456 8.68936L1 8ZM18 1L18.6935 1.28556C18.8088 1.00559 18.7444 0.683765 18.5303 0.46967C18.3162 0.255575 17.9944 0.19121 17.7144 0.306491L18 1ZM11 18L10.3106 18.2954C10.4296 18.573 10.7034 18.7521 11.0054 18.75C11.3073 18.7478 11.5785 18.5648 11.6935 18.2856L11 18ZM1.28556 8.69351L18.2856 1.69351L17.7144 0.306491L0.714438 7.30649L1.28556 8.69351ZM17.3065 0.714438L10.3065 17.7144L11.6935 18.2856L18.6935 1.28556L17.3065 0.714438ZM11.6894 17.7046L8.68936 10.7046L7.31064 11.2954L10.3106 18.2954L11.6894 17.7046ZM8.29544 10.3106L1.29544 7.31064L0.70456 8.68936L7.70456 11.6894L8.29544 10.3106ZM17.4697 0.46967L7.46967 10.4697L8.53033 11.5303L18.5303 1.53033L17.4697 0.46967Z" fill="#A9A9A9"/>
</svg>
