<svg width="25" height="23" viewBox="0 0 25 23" fill="none" xmlns="http://www.w3.org/2000/svg">
<g id="Icon/Arrow-Right">
<path id="Union" fill-rule="evenodd" clip-rule="evenodd" d="M19.5937 10.6466C19.2904 10.9182 18.7998 10.9172 18.4978 10.6445L13.5968 6.21831L13.5968 18.4688L13.5897 18.5634C13.5384 18.9035 13.2141 19.1657 12.8218 19.1657C12.3938 19.1657 12.0468 18.8537 12.0468 18.4688L12.0468 6.21976L7.14598 10.6445L7.05922 10.7122C6.7563 10.9152 6.32572 10.8935 6.05002 10.6466C5.74675 10.375 5.74573 9.93376 6.04775 9.66105L12.2552 4.056C12.3913 3.92486 12.583 3.84101 12.7966 3.83488C13.004 3.82871 13.2136 3.89697 13.3716 4.03967L19.5961 9.66109L19.6709 9.7394C19.8954 10.0126 19.8695 10.3997 19.5937 10.6466Z" fill="#A9A9A9"/>
</g>
</svg>
