<svg width="8" height="8" viewBox="0 0 8 8" fill="none" xmlns="http://www.w3.org/2000/svg">
<path fill-rule="evenodd" clip-rule="evenodd" d="M0.43187 0.545058C0.670386 0.306543 1.0571 0.306543 1.29561 0.545058L7.3418 6.59124C7.58031 6.82976 7.58031 7.21647 7.3418 7.45499C7.10328 7.6935 6.71657 7.6935 6.47806 7.45499L0.43187 1.4088C0.193355 1.17028 0.193355 0.783574 0.43187 0.545058Z" fill="white"/>
<path fill-rule="evenodd" clip-rule="evenodd" d="M0.43187 7.45494C0.193355 7.21643 0.193355 6.82972 0.43187 6.5912L6.47806 0.545014C6.71657 0.306499 7.10328 0.306499 7.3418 0.545015C7.58031 0.78353 7.58031 1.17024 7.3418 1.40876L1.29561 7.45494C1.0571 7.69346 0.670386 7.69346 0.43187 7.45494Z" fill="white"/>
</svg>
